/* XPM */
static char *out[] = {
/* columns rows colors chars-per-pixel */
"30 30 5 1 ",
"  c #340354",
". c #3D0363",
"X c #4D077B",
"o c #540688",
"O c #5C0499",
/* pixels */
"OOOOOOooooooXXXXXX......      ",
"OOOOOOooooooXXXXXX......      ",
"OOOOOOooooooXXXXXX......      ",
"OOOOOOooooooXXXXXX......      ",
"OOOOOOooooooXXXXXX......      ",
"OOOOOOooooooXXXXXX......      ",
"OOOOOOooooooXXXXXX......      ",
"OOOOOOooooooXXXXXX......      ",
"OOOOOOooooooXXXXXX......      ",
"OOOOOOooooooXXXXXX......      ",
"OOOOOOooooooXXXXXX......      ",
"OOOOOOooooooXXXXXX......      ",
"OOOOOOooooooXXXXXX......      ",
"OOOOOOooooooXXXXXX......      ",
"OOOOOOooooooXXXXXX......      ",
"OOOOOOooooooXXXXXX......      ",
"OOOOOOooooooXXXXXX......      ",
"OOOOOOooooooXXXXXX......      ",
"OOOOOOooooooXXXXXX......      ",
"OOOOOOooooooXXXXXX......      ",
"OOOOOOooooooXXXXXX......      ",
"OOOOOOooooooXXXXXX......      ",
"OOOOOOooooooXXXXXX......      ",
"OOOOOOooooooXXXXXX......      ",
"OOOOOOooooooXXXXXX......      ",
"OOOOOOooooooXXXXXX......      ",
"OOOOOOooooooXXXXXX......      ",
"OOOOOOooooooXXXXXX......      ",
"OOOOOOooooooXXXXXX......      ",
"OOOOOOooooooXXXXXX......      "
};
