/* XPM */
static char *f4839bceca2242d3a71b24d61fcf1a89aZS3v33vgqxbsarB[] = {
/* columns rows colors chars-per-pixel */
"30 30 6 1 ",
"  c None",
". c #854CFF",
"X c #9F73FF",
"o c #7383FF",
"O c #8C98FF",
"+ c #B494FF",
/* pixels */
"oooooooooooooo.ooooooooooooooo",
"oooooooooooooo.ooooooooooooooo",
"ooXXXXXXXXXXXX.XXXXXXXXXXXXXoo",
"ooXOOOOOOOOOOO.OOOOOOOOOOOOXoo",
"ooXOOOOOOOOOOO.OOOOOOOOOOOOXoo",
"ooXOOOOOOOOO+++++OOOOOOOOOOXoo",
"ooXOOOOOOOOO+   +OOOOOOOOOOXoo",
"ooXOOOOOOOOO+   +OOOOOOOOOOXoo",
"ooXOOOOOOOOO+   +OOOOOOOOOOXoo",
"ooXOOOOOOOOO+++++OOOOOOOOOOXoo",
"ooXOOOOOOOOOOO.OOOOOOOOOOOOXoo",
"ooXOOOOOOOOOOO.OOOOOOOOOOOOXoo",
"ooXOOOOOOOOO+++++OOOOOOOOOOXoo",
"ooXOOOOOOOOO+   +OOOOOOOOOOXoo",
"ooXOOOOOOOOO+   +OOOOOOOOOOXoo",
"ooXOOOOOOOOO+   +OOOOOOOOOOXoo",
"ooXOOOOOOOOO+++++OOOOOOOOOOXoo",
"ooXOOOOOOOOOOO.OOOOOOOOOOOOXoo",
"ooXOOOOOOOOOOO.OOOOOOOOOOOOXoo",
"ooXOOOOOOOOO+++++OOOOOOOOOOXoo",
"ooXOOOOOOOOO+   +OOOOOOOOOOXoo",
"ooXOOOOOOOOO+   +OOOOOOOOOOXoo",
"ooXOOOOOOOOO+   +OOOOOOOOOOXoo",
"ooXOOOOOOOOO+++++OOOOOOOOOOXoo",
"ooXOOOOOOOOOOO.OOOOOOOOOOOOXoo",
"ooXOOOOOOOOOOO.OOOOOOOOOOOOXoo",
"ooXOOOOOOOOOOO.OOOOOOOOOOOOXoo",
"ooXXXXXXXXXXXX.XXXXXXXXXXXXXoo",
"oooooooooooooo.ooooooooooooooo",
"oooooooooooooo.ooooooooooooooo"
};
