/* XPM */
static char *_228e9efd58c4920ecf290a81839137eIAgWSvBKA1tU9rIp[] = {
/* columns rows colors chars-per-pixel */
"30 30 8 1 ",
"  c None",
". c #5F3AB0",
"X c #5E73FF",
"o c #854CFF",
"O c #9F73FF",
"+ c #7383FF",
"@ c #8C98FF",
"# c #B494FF",
/* pixels */
"+++@@@++++++++++++++++++@@@+++",
"+X+@X@+@@@@@@@@@@@@@@@@+@X@+X+",
"+X+@X@+@@@@@@@@@@@@@@@@+@X@+X+",
"+X+@X@+@@OOOOOOOOOOOO@@+@X@+X+",
"+X+@X@+@@OOOOOOOOOOOO@@+@X@+X+",
"+X+@X@+@@OO########OO@@+@X@+X+",
"+X+@X@+@@OO#oooooo#OO@@+@X@+X+",
"+X+@X@+@@OO#o    o#OO@@+@X@+X+",
"+X+@X@+@@OO#o    o#OO@@+@X@+X+",
"+X+@X@+@@OO#o    o#OO@@+@X@+X+",
"+X+@X@+@@OO#o    o#OO@@+@X@+X+",
"+X+@X@+@@OO#oooooo#OO@@+@X@+X+",
"+X+@X@+@@OO########OO@@+@X@+X+",
"+X+@X@+@@OOOo    oOOO@@+@X@+X+",
"+X+@X@+@@OOOo    oOOO@@+@X@+X+",
"+X+@X@+@@...o    o...@@+@X@+X+",
"+X+@X@+@@...o    o...@@+@X@+X+",
"+X+@X@+@@..########..@@+@X@+X+",
"+X+@X@+@@..#oooooo#..@@+@X@+X+",
"+X+@X@+@@..#o    o#..@@+@X@+X+",
"+X+@X@+@@..#o    o#..@@+@X@+X+",
"+X+@X@+@@..#o    o#..@@+@X@+X+",
"+X+@X@+@@..#o    o#..@@+@X@+X+",
"+X+@X@+@@..#oooooo#..@@+@X@+X+",
"+X+@X@+@@..########..@@+@X@+X+",
"+X+@X@+@@............@@+@X@+X+",
"+X+@X@+@@............@@+@X@+X+",
"+X+@X@+@@@@@@@@@@@@@@@@+@X@+X+",
"+X+@X@+@@@@@@@@@@@@@@@@+@X@+X+",
"+++@@@++++++++++++++++++@@@+++"
};
