/* XPM */
static char *_daad9a74a2747938c96ff7d9d8a52d1R2eFesflIBcX2F0U[] = {
/* columns rows colors chars-per-pixel */
"30 30 5 1 ",
"  c #A776BB",
". c #CB85C3",
"X c #D488C6",
"o c #EF97C7",
"O c #F3A6C6",
/* pixels */
"      ......XXXXXXooooooOOOOOO",
"      ......XXXXXXooooooOOOOOO",
"      ......XXXXXXooooooOOOOOO",
"      ......XXXXXXooooooOOOOOO",
"      ......XXXXXXooooooOOOOOO",
"      ......XXXXXXooooooOOOOOO",
"      ......XXXXXXooooooOOOOOO",
"      ......XXXXXXooooooOOOOOO",
"      ......XXXXXXooooooOOOOOO",
"      ......XXXXXXooooooOOOOOO",
"      ......XXXXXXooooooOOOOOO",
"      ......XXXXXXooooooOOOOOO",
"      ......XXXXXXooooooOOOOOO",
"      ......XXXXXXooooooOOOOOO",
"      ......XXXXXXooooooOOOOOO",
"      ......XXXXXXooooooOOOOOO",
"      ......XXXXXXooooooOOOOOO",
"      ......XXXXXXooooooOOOOOO",
"      ......XXXXXXooooooOOOOOO",
"      ......XXXXXXooooooOOOOOO",
"      ......XXXXXXooooooOOOOOO",
"      ......XXXXXXooooooOOOOOO",
"      ......XXXXXXooooooOOOOOO",
"      ......XXXXXXooooooOOOOOO",
"      ......XXXXXXooooooOOOOOO",
"      ......XXXXXXooooooOOOOOO",
"      ......XXXXXXooooooOOOOOO",
"      ......XXXXXXooooooOOOOOO",
"      ......XXXXXXooooooOOOOOO",
"      ......XXXXXXooooooOOOOOO"
};
