/* XPM */
static char *out[] = {
/* columns rows colors chars-per-pixel */
"30 30 5 1 ",
"  c #6308A3",
". c #700AB7",
"X c #8409DA",
"o c #8B0EE4",
"O c #980BFC",
/* pixels */
"OOOOOOooooooXXXXXX......      ",
"OOOOOOooooooXXXXXX......      ",
"OOOOOOooooooXXXXXX......      ",
"OOOOOOooooooXXXXXX......      ",
"OOOOOOooooooXXXXXX......      ",
"OOOOOOooooooXXXXXX......      ",
"OOOOOOooooooXXXXXX......      ",
"OOOOOOooooooXXXXXX......      ",
"OOOOOOooooooXXXXXX......      ",
"OOOOOOooooooXXXXXX......      ",
"OOOOOOooooooXXXXXX......      ",
"OOOOOOooooooXXXXXX......      ",
"OOOOOOooooooXXXXXX......      ",
"OOOOOOooooooXXXXXX......      ",
"OOOOOOooooooXXXXXX......      ",
"OOOOOOooooooXXXXXX......      ",
"OOOOOOooooooXXXXXX......      ",
"OOOOOOooooooXXXXXX......      ",
"OOOOOOooooooXXXXXX......      ",
"OOOOOOooooooXXXXXX......      ",
"OOOOOOooooooXXXXXX......      ",
"OOOOOOooooooXXXXXX......      ",
"OOOOOOooooooXXXXXX......      ",
"OOOOOOooooooXXXXXX......      ",
"OOOOOOooooooXXXXXX......      ",
"OOOOOOooooooXXXXXX......      ",
"OOOOOOooooooXXXXXX......      ",
"OOOOOOooooooXXXXXX......      ",
"OOOOOOooooooXXXXXX......      ",
"OOOOOOooooooXXXXXX......      "
};
