/* XPM */
static char *_d121f47e5d84351bd41137ba79c34f5PEEmAihlgLU6w31c[] = {
/* columns rows colors chars-per-pixel */
"30 30 5 1 ",
"  c #AD57F5",
". c #BC65EE",
"X c #B062F3",
"o c #CA77F9",
"O c #D58CFB",
/* pixels */
"      XXXXXX......ooooooOOOOOO",
"      XXXXXX......ooooooOOOOOO",
"      XXXXXX......ooooooOOOOOO",
"      XXXXXX......ooooooOOOOOO",
"      XXXXXX......ooooooOOOOOO",
"      XXXXXX......ooooooOOOOOO",
"      XXXXXX......ooooooOOOOOO",
"      XXXXXX......ooooooOOOOOO",
"      XXXXXX......ooooooOOOOOO",
"      XXXXXX......ooooooOOOOOO",
"      XXXXXX......ooooooOOOOOO",
"      XXXXXX......ooooooOOOOOO",
"      XXXXXX......ooooooOOOOOO",
"      XXXXXX......ooooooOOOOOO",
"      XXXXXX......ooooooOOOOOO",
"      XXXXXX......ooooooOOOOOO",
"      XXXXXX......ooooooOOOOOO",
"      XXXXXX......ooooooOOOOOO",
"      XXXXXX......ooooooOOOOOO",
"      XXXXXX......ooooooOOOOOO",
"      XXXXXX......ooooooOOOOOO",
"      XXXXXX......ooooooOOOOOO",
"      XXXXXX......ooooooOOOOOO",
"      XXXXXX......ooooooOOOOOO",
"      XXXXXX......ooooooOOOOOO",
"      XXXXXX......ooooooOOOOOO",
"      XXXXXX......ooooooOOOOOO",
"      XXXXXX......ooooooOOOOOO",
"      XXXXXX......ooooooOOOOOO",
"      XXXXXX......ooooooOOOOOO"
};
