/* XPM */
static char *out[] = {
/* columns rows colors chars-per-pixel */
"30 30 16 1 ",
"  c #0B171F",
". c #2F1854",
"X c #392657",
"o c #4E1557",
"O c #411C5C",
"+ c #54125E",
"@ c #423657",
"# c #7A2376",
"$ c #5C4D78",
"% c #83007A",
"& c #715A9E",
"* c #B0338F",
"= c #C7248E",
"- c #CC2D8C",
"; c #D95588",
": c #EC849B",
/* pixels */
"& & & & & & & & & & & & & & & ",
"                              ",
"$ $ $ $ $ $ $ $ $ $ $ $ $ $ $ ",
"                              ",
"@ @ @ @ @ @ @ @ @ @ @ @ @ @ @ ",
"                              ",
"X X X X X X X X X X X X X X X ",
"                              ",
". . . . . . . . . . . . . . . ",
"                              ",
"O O O O O O O O O O O O O O O ",
"                              ",
"o o o o o o o o o o o o o o o ",
"                              ",
"+ + + + + + + + + + + + + + + ",
"                              ",
"# # # # # # # # # # # # # # # ",
"                              ",
"% % % % % % % % % % % % % % % ",
"                              ",
"* * * * * * * * * * * * * * * ",
"                              ",
"= = = = = = = = = = = = = = = ",
"                              ",
"- - - - - - - - - - - - - - - ",
"                              ",
"; ; ; ; ; ; ; ; ; ; ; ; ; ; ; ",
"                              ",
": : : : : : : : : : : : : : : ",
"                              "
};
