/* XPM */
static char *out[] = {
/* columns rows colors chars-per-pixel */
"30 30 10 1 ",
"  c #0B171F",
". c #1F0C2C",
"X c #30093D",
"o c #47094D",
"O c #51005D",
"+ c #81007A",
"@ c #83007A",
"# c #B00081",
"$ c #C40380",
"% c #C81680",
/* pixels */
"% % % % % % % % % % % % % % % ",
"                              ",
"$ $ $ $ $ $ $ $ $ $ $ $ $ $ $ ",
"                              ",
"# # # # # # # # # # # # # # # ",
"                              ",
"@ @ @ @ @ @ @ @ @ @ @ @ @ @ @ ",
"                              ",
"+ + + + + + + + + + + + + + + ",
"                              ",
"O O O O O O O O O O O O O O O ",
"                              ",
"X X X X X X X X X X X X X X X ",
"                              ",
". . . . . . . . . . . . . . . ",
"                              ",
"X X X X X X X X X X X X X X X ",
"                              ",
"o o o o o o o o o o o o o o o ",
"                              ",
"O O O O O O O O O O O O O O O ",
"                              ",
"+ + + + + + + + + + + + + + + ",
"                              ",
"@ @ @ @ @ @ @ @ @ @ @ @ @ @ @ ",
"                              ",
"# # # # # # # # # # # # # # # ",
"                              ",
"$ $ $ $ $ $ $ $ $ $ $ $ $ $ $ ",
"                              "
};
