/* XPM */
static char *_167e02b11884cc6888ab192b64b4e439AmZSk6HOrWX92Ez[] = {
/* columns rows colors chars-per-pixel */
"64 64 16 1 ",
"  c #0F031F",
". c #16052D",
"X c #1C0C33",
"o c #210B3F",
"O c #31145A",
"+ c #3F1E6E",
"@ c #512B88",
"# c #633A9F",
"$ c #7A50B8",
"% c #9168CE",
"& c #A782DE",
"* c #CCA8FF",
"= c #DEC7FF",
"- c #E4D1FF",
"; c #F7F2FF",
": c #FEFEFF",
/* pixels */
"    ....XXXXooooOOOO++++@@@@####$$$$%%%%&&&&****====----;;;;::::",
"    ....XXXXooooOOOO++++@@@@####$$$$%%%%&&&&****====----;;;;::::",
"    ....XXXXooooOOOO++++@@@@####$$$$%%%%&&&&****====----;;;;::::",
"    ....XXXXooooOOOO++++@@@@####$$$$%%%%&&&&****====----;;;;::::",
"    ....XXXXooooOOOO++++@@@@####$$$$%%%%&&&&****====----;;;;::::",
"    ....XXXXooooOOOO++++@@@@####$$$$%%%%&&&&****====----;;;;::::",
"    ....XXXXooooOOOO++++@@@@####$$$$%%%%&&&&****====----;;;;::::",
"    ....XXXXooooOOOO++++@@@@####$$$$%%%%&&&&****====----;;;;::::",
"    ....XXXXooooOOOO++++@@@@####$$$$%%%%&&&&****====----;;;;::::",
"    ....XXXXooooOOOO++++@@@@####$$$$%%%%&&&&****====----;;;;::::",
"    ....XXXXooooOOOO++++@@@@####$$$$%%%%&&&&****====----;;;;::::",
"    ....XXXXooooOOOO++++@@@@####$$$$%%%%&&&&****====----;;;;::::",
"    ....XXXXooooOOOO++++@@@@####$$$$%%%%&&&&****====----;;;;::::",
"    ....XXXXooooOOOO++++@@@@####$$$$%%%%&&&&****====----;;;;::::",
"    ....XXXXooooOOOO++++@@@@####$$$$%%%%&&&&****====----;;;;::::",
"    ....XXXXooooOOOO++++@@@@####$$$$%%%%&&&&****====----;;;;::::",
"    ....XXXXooooOOOO++++@@@@####$$$$%%%%&&&&****====----;;;;::::",
"    ....XXXXooooOOOO++++@@@@####$$$$%%%%&&&&****====----;;;;::::",
"    ....XXXXooooOOOO++++@@@@####$$$$%%%%&&&&****====----;;;;::::",
"    ....XXXXooooOOOO++++@@@@####$$$$%%%%&&&&****====----;;;;::::",
"    ....XXXXooooOOOO++++@@@@####$$$$%%%%&&&&****====----;;;;::::",
"    ....XXXXooooOOOO++++@@@@####$$$$%%%%&&&&****====----;;;;::::",
"    ....XXXXooooOOOO++++@@@@####$$$$%%%%&&&&****====----;;;;::::",
"    ....XXXXooooOOOO++++@@@@####$$$$%%%%&&&&****====----;;;;::::",
"    ....XXXXooooOOOO++++@@@@####$$$$%%%%&&&&****====----;;;;::::",
"    ....XXXXooooOOOO++++@@@@####$$$$%%%%&&&&****====----;;;;::::",
"    ....XXXXooooOOOO++++@@@@####$$$$%%%%&&&&****====----;;;;::::",
"    ....XXXXooooOOOO++++@@@@####$$$$%%%%&&&&****====----;;;;::::",
"    ....XXXXooooOOOO++++@@@@####$$$$%%%%&&&&****====----;;;;::::",
"    ....XXXXooooOOOO++++@@@@####$$$$%%%%&&&&****====----;;;;::::",
"    ....XXXXooooOOOO++++@@@@####$$$$%%%%&&&&****====----;;;;::::",
"    ....XXXXooooOOOO++++@@@@####$$$$%%%%&&&&****====----;;;;::::",
"    ....XXXXooooOOOO++++@@@@####$$$$%%%%&&&&****====----;;;;::::",
"    ....XXXXooooOOOO++++@@@@####$$$$%%%%&&&&****====----;;;;::::",
"    ....XXXXooooOOOO++++@@@@####$$$$%%%%&&&&****====----;;;;::::",
"    ....XXXXooooOOOO++++@@@@####$$$$%%%%&&&&****====----;;;;::::",
"    ....XXXXooooOOOO++++@@@@####$$$$%%%%&&&&****====----;;;;::::",
"    ....XXXXooooOOOO++++@@@@####$$$$%%%%&&&&****====----;;;;::::",
"    ....XXXXooooOOOO++++@@@@####$$$$%%%%&&&&****====----;;;;::::",
"    ....XXXXooooOOOO++++@@@@####$$$$%%%%&&&&****====----;;;;::::",
"    ....XXXXooooOOOO++++@@@@####$$$$%%%%&&&&****====----;;;;::::",
"    ....XXXXooooOOOO++++@@@@####$$$$%%%%&&&&****====----;;;;::::",
"    ....XXXXooooOOOO++++@@@@####$$$$%%%%&&&&****====----;;;;::::",
"    ....XXXXooooOOOO++++@@@@####$$$$%%%%&&&&****====----;;;;::::",
"    ....XXXXooooOOOO++++@@@@####$$$$%%%%&&&&****====----;;;;::::",
"    ....XXXXooooOOOO++++@@@@####$$$$%%%%&&&&****====----;;;;::::",
"    ....XXXXooooOOOO++++@@@@####$$$$%%%%&&&&****====----;;;;::::",
"    ....XXXXooooOOOO++++@@@@####$$$$%%%%&&&&****====----;;;;::::",
"    ....XXXXooooOOOO++++@@@@####$$$$%%%%&&&&****====----;;;;::::",
"    ....XXXXooooOOOO++++@@@@####$$$$%%%%&&&&****====----;;;;::::",
"    ....XXXXooooOOOO++++@@@@####$$$$%%%%&&&&****====----;;;;::::",
"    ....XXXXooooOOOO++++@@@@####$$$$%%%%&&&&****====----;;;;::::",
"    ....XXXXooooOOOO++++@@@@####$$$$%%%%&&&&****====----;;;;::::",
"    ....XXXXooooOOOO++++@@@@####$$$$%%%%&&&&****====----;;;;::::",
"    ....XXXXooooOOOO++++@@@@####$$$$%%%%&&&&****====----;;;;::::",
"    ....XXXXooooOOOO++++@@@@####$$$$%%%%&&&&****====----;;;;::::",
"    ....XXXXooooOOOO++++@@@@####$$$$%%%%&&&&****====----;;;;::::",
"    ....XXXXooooOOOO++++@@@@####$$$$%%%%&&&&****====----;;;;::::",
"    ....XXXXooooOOOO++++@@@@####$$$$%%%%&&&&****====----;;;;::::",
"    ....XXXXooooOOOO++++@@@@####$$$$%%%%&&&&****====----;;;;::::",
"    ....XXXXooooOOOO++++@@@@####$$$$%%%%&&&&****====----;;;;::::",
"    ....XXXXooooOOOO++++@@@@####$$$$%%%%&&&&****====----;;;;::::",
"    ....XXXXooooOOOO++++@@@@####$$$$%%%%&&&&****====----;;;;::::",
"    ....XXXXooooOOOO++++@@@@####$$$$%%%%&&&&****====----;;;;::::"
};
