/* XPM */
static char *_b16c2b83cfe4189872c26dea634caa9hjsOC87suOkxAN17[] = {
/* columns rows colors chars-per-pixel */
"30 30 6 1 ",
"  c #5E73FF",
". c #9F73FF",
"X c #C16ED4",
"o c #7383FF",
"O c #8C98FF",
"+ c #B494FF",
/* pixels */
"                              ",
"                              ",
"                              ",
"   oooooooooooooooooooooooo   ",
"   oooooooooooooooooooooooo   ",
"   oooooooooooooooooooooooo   ",
"   oooOOOOOOOOOOOOOOOOOOooo   ",
"   oooOOOOOOOOOOOOOOOOOOooo   ",
"   oooOOOOOOOOOOOOOOOOOOooo   ",
"   oooOOO++++++++++++OOOooo   ",
"   oooOOO++++++++++++OOOooo   ",
"   oooOOO++++++++++++OOOooo   ",
"   oooOOO+++......+++OOOooo   ",
"   oooOOO+++......+++OOOooo   ",
"   oooOOO+++..XX..+++OOOooo   ",
"   oooOOO+++..XX..+++OOOooo   ",
"   oooOOO+++......+++OOOooo   ",
"   oooOOO+++......+++OOOooo   ",
"   oooOOO++++++++++++OOOooo   ",
"   oooOOO++++++++++++OOOooo   ",
"   oooOOO++++++++++++OOOooo   ",
"   oooOOOOOOOOOOOOOOOOOOooo   ",
"   oooOOOOOOOOOOOOOOOOOOooo   ",
"   oooOOOOOOOOOOOOOOOOOOooo   ",
"   oooooooooooooooooooooooo   ",
"   oooooooooooooooooooooooo   ",
"   oooooooooooooooooooooooo   ",
"                              ",
"                              ",
"                              "
};
