/* XPM */
static char *out[] = {
/* columns rows colors chars-per-pixel */
"30 30 2 1 ",
"  c gray2",
". c #8409DA",
/* pixels */
"..............................",
"..............................",
"..............................",
"..............................",
"..............................",
"..............................",
"..............................",
".........    .        ........",
"........    ..  ...   ........",
".......   .... ...   .........",
"......   ........   ..........",
".....   ........   ...........",
"....   ......... .............",
"...   .........  .............",
"...   .........  .... ........",
"...          ..  ...  ........",
"...          ..       ........",
"...........  .................",
"...........  .................",
"...........  .................",
"..............................",
"..............................",
"..............................",
"..............................",
"..............................",
"..............................",
"..............................",
"..............................",
"..............................",
".............................."
};
