/* XPM */
static char *a43238a20d014ae4b27ffab4c2d8905fxrHBiwM31WZsObda[] = {
/* columns rows colors chars-per-pixel */
"64 64 2 1 ",
"  c #06912D",
". c #22B14C",
/* pixels */
"                                                                ",
"                                                                ",
"                                                                ",
"                                                                ",
"                                                                ",
"                                                                ",
"                                                                ",
"                                                                ",
"                                                                ",
"                                                                ",
"                                                                ",
"                                                                ",
"                                                                ",
"                                                                ",
"                                  ............ ......           ",
"                                  .                 .           ",
"                                  .                 .           ",
"                                  .     ........... .           ",
"                                  .     .         . .           ",
"                                  .     .  ...... . .           ",
"                                  .     .  .    . . .           ",
"                                  .     .  .  . . . .           ",
"                                  .     .     . . . .           ",
"                                  .     .  .  . . . .           ",
"                                  .     .  .  . . . .           ",
"                                  .     .  .  . . . .           ",
"                                  .     .  .  . . . .           ",
"                                  .     .  .    . . .           ",
"                                        .  .    . .             ",
"                                  .     .  .    . . .           ",
"                                  .     .  ...... . .           ",
"                                  .     .         . .           ",
"                                  .     .         . .           ",
"                                  .     .         . .           ",
"                                  .     ..... ..... .           ",
"                                  .                 .           ",
"                                  .                 .           ",
"                                  .                 .           ",
"                                  .                 .           ",
"                                  .                 .           ",
"                                  .                 .           ",
"                                  .............. ....           ",
"                                                                ",
"                                                                ",
"                                                                ",
"                                                                ",
"                                                                ",
"                                                                ",
"                                                                ",
"                                                                ",
"                                                                ",
"                                                                ",
"                                                                ",
"                                                                ",
"                                                                ",
"                                                                ",
"                                                                ",
"                                                                ",
"                                                                ",
"                                                                ",
"                                                                ",
"                                                                ",
"                                                                ",
"                                                                "
};
