/* XPM */
static char *ba49ef21d2544fc99cbadf44600fa5d0YYBOLlfwVGtCTOKq[] = {
/* columns rows colors chars-per-pixel */
"128 128 2 1 ",
"  c #631736",
". c #B08798",
/* pixels */
"                                                                                                                                ",
"                                                                                                                                ",
"                                                                                                                                ",
"                                                                                                                                ",
"    ........................................................................................................................    ",
"    ........................................................................................................................    ",
"    ........................................................................................................................    ",
"    ........................................................................................................................    ",
"    ....                                                                                                                ....    ",
"    ....                                                                                                                ....    ",
"    ....                                                                                                                ....    ",
"    ....                                                                                                                ....    ",
"    ....    ........................................................................................................    ....    ",
"    ....    ........................................................................................................    ....    ",
"    ....    ........................................................................................................    ....    ",
"    ....    ........................................................................................................    ....    ",
"    ....    ....                                                                                                ....    ....    ",
"    ....    ....                                                                                                ....    ....    ",
"    ....    ....                                                                                                ....    ....    ",
"    ....    ....                                                                                                ....    ....    ",
"    ....    ....    ........................................................................................    ....    ....    ",
"    ....    ....    ........................................................................................    ....    ....    ",
"    ....    ....    ........................................................................................    ....    ....    ",
"    ....    ....    ........................................................................................    ....    ....    ",
"    ....    ....    ....                                                                                ....    ....    ....    ",
"    ....    ....    ....                                                                                ....    ....    ....    ",
"    ....    ....    ....                                                                                ....    ....    ....    ",
"    ....    ....    ....                                                                                ....    ....    ....    ",
"    ....    ....    ....    ........................................................................    ....    ....    ....    ",
"    ....    ....    ....    ........................................................................    ....    ....    ....    ",
"    ....    ....    ....    ........................................................................    ....    ....    ....    ",
"    ....    ....    ....    ........................................................................    ....    ....    ....    ",
"    ....    ....    ....    ....                                                                ....    ....    ....    ....    ",
"    ....    ....    ....    ....                                                                ....    ....    ....    ....    ",
"    ....    ....    ....    ....                                                                ....    ....    ....    ....    ",
"    ....    ....    ....    ....                                                                ....    ....    ....    ....    ",
"    ....    ....    ....    ....    ........................................................    ....    ....    ....    ....    ",
"    ....    ....    ....    ....    ........................................................    ....    ....    ....    ....    ",
"    ....    ....    ....    ....    ........................................................    ....    ....    ....    ....    ",
"    ....    ....    ....    ....    ........................................................    ....    ....    ....    ....    ",
"    ....    ....    ....    ....    ....                                                ....    ....    ....    ....    ....    ",
"    ....    ....    ....    ....    ....                                                ....    ....    ....    ....    ....    ",
"    ....    ....    ....    ....    ....                                                ....    ....    ....    ....    ....    ",
"    ....    ....    ....    ....    ....                                                ....    ....    ....    ....    ....    ",
"    ....    ....    ....    ....    ....    ........................................    ....    ....    ....    ....    ....    ",
"    ....    ....    ....    ....    ....    ........................................    ....    ....    ....    ....    ....    ",
"    ....    ....    ....    ....    ....    ........................................    ....    ....    ....    ....    ....    ",
"    ....    ....    ....    ....    ....    ........................................    ....    ....    ....    ....    ....    ",
"    ....    ....    ....    ....    ....    ....                                ....    ....    ....    ....    ....    ....    ",
"    ....    ....    ....    ....    ....    ....                                ....    ....    ....    ....    ....    ....    ",
"    ....    ....    ....    ....    ....    ....                                ....    ....    ....    ....    ....    ....    ",
"    ....    ....    ....    ....    ....    ....                                ....    ....    ....    ....    ....    ....    ",
"    ....    ....    ....    ....    ....    ....    ........................    ....    ....    ....    ....    ....    ....    ",
"    ....    ....    ....    ....    ....    ....    ........................    ....    ....    ....    ....    ....    ....    ",
"    ....    ....    ....    ....    ....    ....    ........................    ....    ....    ....    ....    ....    ....    ",
"    ....    ....    ....    ....    ....    ....    ........................    ....    ....    ....    ....    ....    ....    ",
"    ....    ....    ....    ....    ....    ....    ....                ....    ....    ....    ....    ....    ....    ....    ",
"    ....    ....    ....    ....    ....    ....    ....                ....    ....    ....    ....    ....    ....    ....    ",
"    ....    ....    ....    ....    ....    ....    ....                ....    ....    ....    ....    ....    ....    ....    ",
"    ....    ....    ....    ....    ....    ....    ....                ....    ....    ....    ....    ....    ....    ....    ",
"    ....    ....    ....    ....    ....    ....    ....    ........    ....    ....    ....    ....    ....    ....    ....    ",
"    ....    ....    ....    ....    ....    ....    ....    ........    ....    ....    ....    ....    ....    ....    ....    ",
"    ....    ....    ....    ....    ....    ....    ....    ........    ....    ....    ....    ....    ....    ....    ....    ",
"    ....    ....    ....    ....    ....    ....    ....    ........    ....    ....    ....    ....    ....    ....    ....    ",
"    ....    ....    ....    ....    ....    ....    ....    ........    ....    ....    ....    ....    ....    ....    ....    ",
"    ....    ....    ....    ....    ....    ....    ....    ........    ....    ....    ....    ....    ....    ....    ....    ",
"    ....    ....    ....    ....    ....    ....    ....    ........    ....    ....    ....    ....    ....    ....    ....    ",
"    ....    ....    ....    ....    ....    ....    ....    ........    ....    ....    ....    ....    ....    ....    ....    ",
"    ....    ....    ....    ....    ....    ....    ....                ....    ....    ....    ....    ....    ....    ....    ",
"    ....    ....    ....    ....    ....    ....    ....                ....    ....    ....    ....    ....    ....    ....    ",
"    ....    ....    ....    ....    ....    ....    ....                ....    ....    ....    ....    ....    ....    ....    ",
"    ....    ....    ....    ....    ....    ....    ....                ....    ....    ....    ....    ....    ....    ....    ",
"    ....    ....    ....    ....    ....    ....    ........................    ....    ....    ....    ....    ....    ....    ",
"    ....    ....    ....    ....    ....    ....    ........................    ....    ....    ....    ....    ....    ....    ",
"    ....    ....    ....    ....    ....    ....    ........................    ....    ....    ....    ....    ....    ....    ",
"    ....    ....    ....    ....    ....    ....    ........................    ....    ....    ....    ....    ....    ....    ",
"    ....    ....    ....    ....    ....    ....                                ....    ....    ....    ....    ....    ....    ",
"    ....    ....    ....    ....    ....    ....                                ....    ....    ....    ....    ....    ....    ",
"    ....    ....    ....    ....    ....    ....                                ....    ....    ....    ....    ....    ....    ",
"    ....    ....    ....    ....    ....    ....                                ....    ....    ....    ....    ....    ....    ",
"    ....    ....    ....    ....    ....    ........................................    ....    ....    ....    ....    ....    ",
"    ....    ....    ....    ....    ....    ........................................    ....    ....    ....    ....    ....    ",
"    ....    ....    ....    ....    ....    ........................................    ....    ....    ....    ....    ....    ",
"    ....    ....    ....    ....    ....    ........................................    ....    ....    ....    ....    ....    ",
"    ....    ....    ....    ....    ....                                                ....    ....    ....    ....    ....    ",
"    ....    ....    ....    ....    ....                                                ....    ....    ....    ....    ....    ",
"    ....    ....    ....    ....    ....                                                ....    ....    ....    ....    ....    ",
"    ....    ....    ....    ....    ....                                                ....    ....    ....    ....    ....    ",
"    ....    ....    ....    ....    ........................................................    ....    ....    ....    ....    ",
"    ....    ....    ....    ....    ........................................................    ....    ....    ....    ....    ",
"    ....    ....    ....    ....    ........................................................    ....    ....    ....    ....    ",
"    ....    ....    ....    ....    ........................................................    ....    ....    ....    ....    ",
"    ....    ....    ....    ....                                                                ....    ....    ....    ....    ",
"    ....    ....    ....    ....                                                                ....    ....    ....    ....    ",
"    ....    ....    ....    ....                                                                ....    ....    ....    ....    ",
"    ....    ....    ....    ....                                                                ....    ....    ....    ....    ",
"    ....    ....    ....    ........................................................................    ....    ....    ....    ",
"    ....    ....    ....    ........................................................................    ....    ....    ....    ",
"    ....    ....    ....    ........................................................................    ....    ....    ....    ",
"    ....    ....    ....    ........................................................................    ....    ....    ....    ",
"    ....    ....    ....                                                                                ....    ....    ....    ",
"    ....    ....    ....                                                                                ....    ....    ....    ",
"    ....    ....    ....                                                                                ....    ....    ....    ",
"    ....    ....    ....                                                                                ....    ....    ....    ",
"    ....    ....    ........................................................................................    ....    ....    ",
"    ....    ....    ........................................................................................    ....    ....    ",
"    ....    ....    ........................................................................................    ....    ....    ",
"    ....    ....    ........................................................................................    ....    ....    ",
"    ....    ....                                                                                                ....    ....    ",
"    ....    ....                                                                                                ....    ....    ",
"    ....    ....                                                                                                ....    ....    ",
"    ....    ....                                                                                                ....    ....    ",
"    ....    ........................................................................................................    ....    ",
"    ....    ........................................................................................................    ....    ",
"    ....    ........................................................................................................    ....    ",
"    ....    ........................................................................................................    ....    ",
"    ....                                                                                                                ....    ",
"    ....                                                                                                                ....    ",
"    ....                                                                                                                ....    ",
"    ....                                                                                                                ....    ",
"    ........................................................................................................................    ",
"    ........................................................................................................................    ",
"    ........................................................................................................................    ",
"    ........................................................................................................................    ",
"                                                                                                                                ",
"                                                                                                                                ",
"                                                                                                                                ",
"                                                                                                                                "
};
