/* XPM */
static char *_0806c5a9269480a85c7d6c6426e4d97OWcw4punuKfv1oLR[] = {
/* columns rows colors chars-per-pixel */
"64 64 16 1 ",
"  c #715BA4",
". c #7762B1",
"X c #8569B4",
"o c #976FB6",
"O c #A776BB",
"+ c #FFDBBB",
"@ c #CB85C3",
"# c #D488C6",
"$ c #DD8CC6",
"% c #EF97C7",
"& c #F3AEC3",
"* c #F7A1C8",
"= c #FFB7C5",
"- c #FFBFC3",
"; c #FFC8C3",
": c #FFD5C4",
/* pixels */
"    ....XXXXooooOOOO@@@@####$$$$%%%%****&&&&====----;;;;::::++++",
"    ....XXXXooooOOOO@@@@####$$$$%%%%****&&&&====----;;;;::::++++",
"    ....XXXXooooOOOO@@@@####$$$$%%%%****&&&&====----;;;;::::++++",
"    ....XXXXooooOOOO@@@@####$$$$%%%%****&&&&====----;;;;::::++++",
"    ....XXXXooooOOOO@@@@####$$$$%%%%****&&&&====----;;;;::::++++",
"    ....XXXXooooOOOO@@@@####$$$$%%%%****&&&&====----;;;;::::++++",
"    ....XXXXooooOOOO@@@@####$$$$%%%%****&&&&====----;;;;::::++++",
"    ....XXXXooooOOOO@@@@####$$$$%%%%****&&&&====----;;;;::::++++",
"    ....XXXXooooOOOO@@@@####$$$$%%%%****&&&&====----;;;;::::++++",
"    ....XXXXooooOOOO@@@@####$$$$%%%%****&&&&====----;;;;::::++++",
"    ....XXXXooooOOOO@@@@####$$$$%%%%****&&&&====----;;;;::::++++",
"    ....XXXXooooOOOO@@@@####$$$$%%%%****&&&&====----;;;;::::++++",
"    ....XXXXooooOOOO@@@@####$$$$%%%%****&&&&====----;;;;::::++++",
"    ....XXXXooooOOOO@@@@####$$$$%%%%****&&&&====----;;;;::::++++",
"    ....XXXXooooOOOO@@@@####$$$$%%%%****&&&&====----;;;;::::++++",
"    ....XXXXooooOOOO@@@@####$$$$%%%%****&&&&====----;;;;::::++++",
"    ....XXXXooooOOOO@@@@####$$$$%%%%****&&&&====----;;;;::::++++",
"    ....XXXXooooOOOO@@@@####$$$$%%%%****&&&&====----;;;;::::++++",
"    ....XXXXooooOOOO@@@@####$$$$%%%%****&&&&====----;;;;::::++++",
"    ....XXXXooooOOOO@@@@####$$$$%%%%****&&&&====----;;;;::::++++",
"    ....XXXXooooOOOO@@@@####$$$$%%%%****&&&&====----;;;;::::++++",
"    ....XXXXooooOOOO@@@@####$$$$%%%%****&&&&====----;;;;::::++++",
"    ....XXXXooooOOOO@@@@####$$$$%%%%****&&&&====----;;;;::::++++",
"    ....XXXXooooOOOO@@@@####$$$$%%%%****&&&&====----;;;;::::++++",
"    ....XXXXooooOOOO@@@@####$$$$%%%%****&&&&====----;;;;::::++++",
"    ....XXXXooooOOOO@@@@####$$$$%%%%****&&&&====----;;;;::::++++",
"    ....XXXXooooOOOO@@@@####$$$$%%%%****&&&&====----;;;;::::++++",
"    ....XXXXooooOOOO@@@@####$$$$%%%%****&&&&====----;;;;::::++++",
"    ....XXXXooooOOOO@@@@####$$$$%%%%****&&&&====----;;;;::::++++",
"    ....XXXXooooOOOO@@@@####$$$$%%%%****&&&&====----;;;;::::++++",
"    ....XXXXooooOOOO@@@@####$$$$%%%%****&&&&====----;;;;::::++++",
"    ....XXXXooooOOOO@@@@####$$$$%%%%****&&&&====----;;;;::::++++",
"    ....XXXXooooOOOO@@@@####$$$$%%%%****&&&&====----;;;;::::++++",
"    ....XXXXooooOOOO@@@@####$$$$%%%%****&&&&====----;;;;::::++++",
"    ....XXXXooooOOOO@@@@####$$$$%%%%****&&&&====----;;;;::::++++",
"    ....XXXXooooOOOO@@@@####$$$$%%%%****&&&&====----;;;;::::++++",
"    ....XXXXooooOOOO@@@@####$$$$%%%%****&&&&====----;;;;::::++++",
"    ....XXXXooooOOOO@@@@####$$$$%%%%****&&&&====----;;;;::::++++",
"    ....XXXXooooOOOO@@@@####$$$$%%%%****&&&&====----;;;;::::++++",
"    ....XXXXooooOOOO@@@@####$$$$%%%%****&&&&====----;;;;::::++++",
"    ....XXXXooooOOOO@@@@####$$$$%%%%****&&&&====----;;;;::::++++",
"    ....XXXXooooOOOO@@@@####$$$$%%%%****&&&&====----;;;;::::++++",
"    ....XXXXooooOOOO@@@@####$$$$%%%%****&&&&====----;;;;::::++++",
"    ....XXXXooooOOOO@@@@####$$$$%%%%****&&&&====----;;;;::::++++",
"    ....XXXXooooOOOO@@@@####$$$$%%%%****&&&&====----;;;;::::++++",
"    ....XXXXooooOOOO@@@@####$$$$%%%%****&&&&====----;;;;::::++++",
"    ....XXXXooooOOOO@@@@####$$$$%%%%****&&&&====----;;;;::::++++",
"    ....XXXXooooOOOO@@@@####$$$$%%%%****&&&&====----;;;;::::++++",
"    ....XXXXooooOOOO@@@@####$$$$%%%%****&&&&====----;;;;::::++++",
"    ....XXXXooooOOOO@@@@####$$$$%%%%****&&&&====----;;;;::::++++",
"    ....XXXXooooOOOO@@@@####$$$$%%%%****&&&&====----;;;;::::++++",
"    ....XXXXooooOOOO@@@@####$$$$%%%%****&&&&====----;;;;::::++++",
"    ....XXXXooooOOOO@@@@####$$$$%%%%****&&&&====----;;;;::::++++",
"    ....XXXXooooOOOO@@@@####$$$$%%%%****&&&&====----;;;;::::++++",
"    ....XXXXooooOOOO@@@@####$$$$%%%%****&&&&====----;;;;::::++++",
"    ....XXXXooooOOOO@@@@####$$$$%%%%****&&&&====----;;;;::::++++",
"    ....XXXXooooOOOO@@@@####$$$$%%%%****&&&&====----;;;;::::++++",
"    ....XXXXooooOOOO@@@@####$$$$%%%%****&&&&====----;;;;::::++++",
"    ....XXXXooooOOOO@@@@####$$$$%%%%****&&&&====----;;;;::::++++",
"    ....XXXXooooOOOO@@@@####$$$$%%%%****&&&&====----;;;;::::++++",
"    ....XXXXooooOOOO@@@@####$$$$%%%%****&&&&====----;;;;::::++++",
"    ....XXXXooooOOOO@@@@####$$$$%%%%****&&&&====----;;;;::::++++",
"    ....XXXXooooOOOO@@@@####$$$$%%%%****&&&&====----;;;;::::++++",
"    ....XXXXooooOOOO@@@@####$$$$%%%%****&&&&====----;;;;::::++++"
};
