/* XPM */
static char *_3676f00370d4f77f0d511a89fe9419fnm8DWUCTYTFihvlW[] = {
/* columns rows colors chars-per-pixel */
"64 64 16 1 ",
"  c #040227",
". c #060431",
"X c #070443",
"o c #060A4A",
"O c #080D5B",
"+ c #0B1170",
"@ c #0B1288",
"# c #10298F",
"$ c #19329A",
"% c #223A9B",
"& c #3C709A",
"* c #2B53A1",
"= c #3069A6",
"- c #307EA6",
"; c #3B83A3",
": c #3B9BB2",
/* pixels */
"    ....XXXXooooOOOO++++@@@@####$$$$%%%%****====----::::;;;;&&&&",
"    ....XXXXooooOOOO++++@@@@####$$$$%%%%****====----::::;;;;&&&&",
"    ....XXXXooooOOOO++++@@@@####$$$$%%%%****====----::::;;;;&&&&",
"    ....XXXXooooOOOO++++@@@@####$$$$%%%%****====----::::;;;;&&&&",
"    ....XXXXooooOOOO++++@@@@####$$$$%%%%****====----::::;;;;&&&&",
"    ....XXXXooooOOOO++++@@@@####$$$$%%%%****====----::::;;;;&&&&",
"    ....XXXXooooOOOO++++@@@@####$$$$%%%%****====----::::;;;;&&&&",
"    ....XXXXooooOOOO++++@@@@####$$$$%%%%****====----::::;;;;&&&&",
"    ....XXXXooooOOOO++++@@@@####$$$$%%%%****====----::::;;;;&&&&",
"    ....XXXXooooOOOO++++@@@@####$$$$%%%%****====----::::;;;;&&&&",
"    ....XXXXooooOOOO++++@@@@####$$$$%%%%****====----::::;;;;&&&&",
"    ....XXXXooooOOOO++++@@@@####$$$$%%%%****====----::::;;;;&&&&",
"    ....XXXXooooOOOO++++@@@@####$$$$%%%%****====----::::;;;;&&&&",
"    ....XXXXooooOOOO++++@@@@####$$$$%%%%****====----::::;;;;&&&&",
"    ....XXXXooooOOOO++++@@@@####$$$$%%%%****====----::::;;;;&&&&",
"    ....XXXXooooOOOO++++@@@@####$$$$%%%%****====----::::;;;;&&&&",
"    ....XXXXooooOOOO++++@@@@####$$$$%%%%****====----::::;;;;&&&&",
"    ....XXXXooooOOOO++++@@@@####$$$$%%%%****====----::::;;;;&&&&",
"    ....XXXXooooOOOO++++@@@@####$$$$%%%%****====----::::;;;;&&&&",
"    ....XXXXooooOOOO++++@@@@####$$$$%%%%****====----::::;;;;&&&&",
"    ....XXXXooooOOOO++++@@@@####$$$$%%%%****====----::::;;;;&&&&",
"    ....XXXXooooOOOO++++@@@@####$$$$%%%%****====----::::;;;;&&&&",
"    ....XXXXooooOOOO++++@@@@####$$$$%%%%****====----::::;;;;&&&&",
"    ....XXXXooooOOOO++++@@@@####$$$$%%%%****====----::::;;;;&&&&",
"    ....XXXXooooOOOO++++@@@@####$$$$%%%%****====----::::;;;;&&&&",
"    ....XXXXooooOOOO++++@@@@####$$$$%%%%****====----::::;;;;&&&&",
"    ....XXXXooooOOOO++++@@@@####$$$$%%%%****====----::::;;;;&&&&",
"    ....XXXXooooOOOO++++@@@@####$$$$%%%%****====----::::;;;;&&&&",
"    ....XXXXooooOOOO++++@@@@####$$$$%%%%****====----::::;;;;&&&&",
"    ....XXXXooooOOOO++++@@@@####$$$$%%%%****====----::::;;;;&&&&",
"    ....XXXXooooOOOO++++@@@@####$$$$%%%%****====----::::;;;;&&&&",
"    ....XXXXooooOOOO++++@@@@####$$$$%%%%****====----::::;;;;&&&&",
"    ....XXXXooooOOOO++++@@@@####$$$$%%%%****====----::::;;;;&&&&",
"    ....XXXXooooOOOO++++@@@@####$$$$%%%%****====----::::;;;;&&&&",
"    ....XXXXooooOOOO++++@@@@####$$$$%%%%****====----::::;;;;&&&&",
"    ....XXXXooooOOOO++++@@@@####$$$$%%%%****====----::::;;;;&&&&",
"    ....XXXXooooOOOO++++@@@@####$$$$%%%%****====----::::;;;;&&&&",
"    ....XXXXooooOOOO++++@@@@####$$$$%%%%****====----::::;;;;&&&&",
"    ....XXXXooooOOOO++++@@@@####$$$$%%%%****====----::::;;;;&&&&",
"    ....XXXXooooOOOO++++@@@@####$$$$%%%%****====----::::;;;;&&&&",
"    ....XXXXooooOOOO++++@@@@####$$$$%%%%****====----::::;;;;&&&&",
"    ....XXXXooooOOOO++++@@@@####$$$$%%%%****====----::::;;;;&&&&",
"    ....XXXXooooOOOO++++@@@@####$$$$%%%%****====----::::;;;;&&&&",
"    ....XXXXooooOOOO++++@@@@####$$$$%%%%****====----::::;;;;&&&&",
"    ....XXXXooooOOOO++++@@@@####$$$$%%%%****====----::::;;;;&&&&",
"    ....XXXXooooOOOO++++@@@@####$$$$%%%%****====----::::;;;;&&&&",
"    ....XXXXooooOOOO++++@@@@####$$$$%%%%****====----::::;;;;&&&&",
"    ....XXXXooooOOOO++++@@@@####$$$$%%%%****====----::::;;;;&&&&",
"    ....XXXXooooOOOO++++@@@@####$$$$%%%%****====----::::;;;;&&&&",
"    ....XXXXooooOOOO++++@@@@####$$$$%%%%****====----::::;;;;&&&&",
"    ....XXXXooooOOOO++++@@@@####$$$$%%%%****====----::::;;;;&&&&",
"    ....XXXXooooOOOO++++@@@@####$$$$%%%%****====----::::;;;;&&&&",
"    ....XXXXooooOOOO++++@@@@####$$$$%%%%****====----::::;;;;&&&&",
"    ....XXXXooooOOOO++++@@@@####$$$$%%%%****====----::::;;;;&&&&",
"    ....XXXXooooOOOO++++@@@@####$$$$%%%%****====----::::;;;;&&&&",
"    ....XXXXooooOOOO++++@@@@####$$$$%%%%****====----::::;;;;&&&&",
"    ....XXXXooooOOOO++++@@@@####$$$$%%%%****====----::::;;;;&&&&",
"    ....XXXXooooOOOO++++@@@@####$$$$%%%%****====----::::;;;;&&&&",
"    ....XXXXooooOOOO++++@@@@####$$$$%%%%****====----::::;;;;&&&&",
"    ....XXXXooooOOOO++++@@@@####$$$$%%%%****====----::::;;;;&&&&",
"    ....XXXXooooOOOO++++@@@@####$$$$%%%%****====----::::;;;;&&&&",
"    ....XXXXooooOOOO++++@@@@####$$$$%%%%****====----::::;;;;&&&&",
"    ....XXXXooooOOOO++++@@@@####$$$$%%%%****====----::::;;;;&&&&",
"    ....XXXXooooOOOO++++@@@@####$$$$%%%%****====----::::;;;;&&&&"
};
