/* XPM */
static char *_4f46da8a73c4298ef3881c10860f95eRcMBTZKfZKLfJLgs[] = {
/* columns rows colors chars-per-pixel */
"64 64 16 1 ",
"  c #0B004E",
". c #140141",
"X c #01095F",
"o c #01284D",
"O c #002373",
"+ c #075A66",
"@ c #58CC3F",
"# c #1D9B5B",
"$ c #2FB341",
"% c #11806B",
"& c #A0E655",
"* c #E8FD6E",
"= c #014485",
"- c #086F9E",
"; c #06ABBB",
": c #02F2DB",
/* pixels */
"oooo++++%%%%####$$$$@@@@&&&&****::::;;;;----====OOOOXXXX    ....",
"oooo++++%%%%####$$$$@@@@&&&&****::::;;;;----====OOOOXXXX    ....",
"oooo++++%%%%####$$$$@@@@&&&&****::::;;;;----====OOOOXXXX    ....",
"oooo++++%%%%####$$$$@@@@&&&&****::::;;;;----====OOOOXXXX    ....",
"oooo++++%%%%####$$$$@@@@&&&&****::::;;;;----====OOOOXXXX    ....",
"oooo++++%%%%####$$$$@@@@&&&&****::::;;;;----====OOOOXXXX    ....",
"oooo++++%%%%####$$$$@@@@&&&&****::::;;;;----====OOOOXXXX    ....",
"oooo++++%%%%####$$$$@@@@&&&&****::::;;;;----====OOOOXXXX    ....",
"oooo++++%%%%####$$$$@@@@&&&&****::::;;;;----====OOOOXXXX    ....",
"oooo++++%%%%####$$$$@@@@&&&&****::::;;;;----====OOOOXXXX    ....",
"oooo++++%%%%####$$$$@@@@&&&&****::::;;;;----====OOOOXXXX    ....",
"oooo++++%%%%####$$$$@@@@&&&&****::::;;;;----====OOOOXXXX    ....",
"oooo++++%%%%####$$$$@@@@&&&&****::::;;;;----====OOOOXXXX    ....",
"oooo++++%%%%####$$$$@@@@&&&&****::::;;;;----====OOOOXXXX    ....",
"oooo++++%%%%####$$$$@@@@&&&&****::::;;;;----====OOOOXXXX    ....",
"oooo++++%%%%####$$$$@@@@&&&&****::::;;;;----====OOOOXXXX    ....",
"oooo++++%%%%####$$$$@@@@&&&&****::::;;;;----====OOOOXXXX    ....",
"oooo++++%%%%####$$$$@@@@&&&&****::::;;;;----====OOOOXXXX    ....",
"oooo++++%%%%####$$$$@@@@&&&&****::::;;;;----====OOOOXXXX    ....",
"oooo++++%%%%####$$$$@@@@&&&&****::::;;;;----====OOOOXXXX    ....",
"oooo++++%%%%####$$$$@@@@&&&&****::::;;;;----====OOOOXXXX    ....",
"oooo++++%%%%####$$$$@@@@&&&&****::::;;;;----====OOOOXXXX    ....",
"oooo++++%%%%####$$$$@@@@&&&&****::::;;;;----====OOOOXXXX    ....",
"oooo++++%%%%####$$$$@@@@&&&&****::::;;;;----====OOOOXXXX    ....",
"oooo++++%%%%####$$$$@@@@&&&&****::::;;;;----====OOOOXXXX    ....",
"oooo++++%%%%####$$$$@@@@&&&&****::::;;;;----====OOOOXXXX    ....",
"oooo++++%%%%####$$$$@@@@&&&&****::::;;;;----====OOOOXXXX    ....",
"oooo++++%%%%####$$$$@@@@&&&&****::::;;;;----====OOOOXXXX    ....",
"oooo++++%%%%####$$$$@@@@&&&&****::::;;;;----====OOOOXXXX    ....",
"oooo++++%%%%####$$$$@@@@&&&&****::::;;;;----====OOOOXXXX    ....",
"oooo++++%%%%####$$$$@@@@&&&&****::::;;;;----====OOOOXXXX    ....",
"oooo++++%%%%####$$$$@@@@&&&&****::::;;;;----====OOOOXXXX    ....",
"oooo++++%%%%####$$$$@@@@&&&&****::::;;;;----====OOOOXXXX    ....",
"oooo++++%%%%####$$$$@@@@&&&&****::::;;;;----====OOOOXXXX    ....",
"oooo++++%%%%####$$$$@@@@&&&&****::::;;;;----====OOOOXXXX    ....",
"oooo++++%%%%####$$$$@@@@&&&&****::::;;;;----====OOOOXXXX    ....",
"oooo++++%%%%####$$$$@@@@&&&&****::::;;;;----====OOOOXXXX    ....",
"oooo++++%%%%####$$$$@@@@&&&&****::::;;;;----====OOOOXXXX    ....",
"oooo++++%%%%####$$$$@@@@&&&&****::::;;;;----====OOOOXXXX    ....",
"oooo++++%%%%####$$$$@@@@&&&&****::::;;;;----====OOOOXXXX    ....",
"oooo++++%%%%####$$$$@@@@&&&&****::::;;;;----====OOOOXXXX    ....",
"oooo++++%%%%####$$$$@@@@&&&&****::::;;;;----====OOOOXXXX    ....",
"oooo++++%%%%####$$$$@@@@&&&&****::::;;;;----====OOOOXXXX    ....",
"oooo++++%%%%####$$$$@@@@&&&&****::::;;;;----====OOOOXXXX    ....",
"oooo++++%%%%####$$$$@@@@&&&&****::::;;;;----====OOOOXXXX    ....",
"oooo++++%%%%####$$$$@@@@&&&&****::::;;;;----====OOOOXXXX    ....",
"oooo++++%%%%####$$$$@@@@&&&&****::::;;;;----====OOOOXXXX    ....",
"oooo++++%%%%####$$$$@@@@&&&&****::::;;;;----====OOOOXXXX    ....",
"oooo++++%%%%####$$$$@@@@&&&&****::::;;;;----====OOOOXXXX    ....",
"oooo++++%%%%####$$$$@@@@&&&&****::::;;;;----====OOOOXXXX    ....",
"oooo++++%%%%####$$$$@@@@&&&&****::::;;;;----====OOOOXXXX    ....",
"oooo++++%%%%####$$$$@@@@&&&&****::::;;;;----====OOOOXXXX    ....",
"oooo++++%%%%####$$$$@@@@&&&&****::::;;;;----====OOOOXXXX    ....",
"oooo++++%%%%####$$$$@@@@&&&&****::::;;;;----====OOOOXXXX    ....",
"oooo++++%%%%####$$$$@@@@&&&&****::::;;;;----====OOOOXXXX    ....",
"oooo++++%%%%####$$$$@@@@&&&&****::::;;;;----====OOOOXXXX    ....",
"oooo++++%%%%####$$$$@@@@&&&&****::::;;;;----====OOOOXXXX    ....",
"oooo++++%%%%####$$$$@@@@&&&&****::::;;;;----====OOOOXXXX    ....",
"oooo++++%%%%####$$$$@@@@&&&&****::::;;;;----====OOOOXXXX    ....",
"oooo++++%%%%####$$$$@@@@&&&&****::::;;;;----====OOOOXXXX    ....",
"oooo++++%%%%####$$$$@@@@&&&&****::::;;;;----====OOOOXXXX    ....",
"oooo++++%%%%####$$$$@@@@&&&&****::::;;;;----====OOOOXXXX    ....",
"oooo++++%%%%####$$$$@@@@&&&&****::::;;;;----====OOOOXXXX    ....",
"oooo++++%%%%####$$$$@@@@&&&&****::::;;;;----====OOOOXXXX    ...."
};
