/* XPM */
static char *_ed524c378a44cfff1267e33503f14ef7nAIY3DJgwnv57YY[] = {
/* columns rows colors chars-per-pixel */
"64 64 16 1 ",
"  c #0E0421",
". c #052137",
"X c #0C0B42",
"o c #153C4A",
"O c #392946",
"+ c #032769",
"@ c #2C645E",
"# c #5B537D",
"$ c #429058",
"% c #144491",
"& c #488BD4",
"* c #78D7FF",
"= c #928FB8",
"- c #B0FFF1",
"; c #C7D4E1",
": c #FAFFFF",
/* pixels */
"$$$$@@@@oooo....    XXXX++++%%%%&&&&****----::::;;;;====####OOOO",
"$$$$@@@@oooo....    XXXX++++%%%%&&&&****----::::;;;;====####OOOO",
"$$$$@@@@oooo....    XXXX++++%%%%&&&&****----::::;;;;====####OOOO",
"$$$$@@@@oooo....    XXXX++++%%%%&&&&****----::::;;;;====####OOOO",
"$$$$@@@@oooo....    XXXX++++%%%%&&&&****----::::;;;;====####OOOO",
"$$$$@@@@oooo....    XXXX++++%%%%&&&&****----::::;;;;====####OOOO",
"$$$$@@@@oooo....    XXXX++++%%%%&&&&****----::::;;;;====####OOOO",
"$$$$@@@@oooo....    XXXX++++%%%%&&&&****----::::;;;;====####OOOO",
"$$$$@@@@oooo....    XXXX++++%%%%&&&&****----::::;;;;====####OOOO",
"$$$$@@@@oooo....    XXXX++++%%%%&&&&****----::::;;;;====####OOOO",
"$$$$@@@@oooo....    XXXX++++%%%%&&&&****----::::;;;;====####OOOO",
"$$$$@@@@oooo....    XXXX++++%%%%&&&&****----::::;;;;====####OOOO",
"$$$$@@@@oooo....    XXXX++++%%%%&&&&****----::::;;;;====####OOOO",
"$$$$@@@@oooo....    XXXX++++%%%%&&&&****----::::;;;;====####OOOO",
"$$$$@@@@oooo....    XXXX++++%%%%&&&&****----::::;;;;====####OOOO",
"$$$$@@@@oooo....    XXXX++++%%%%&&&&****----::::;;;;====####OOOO",
"$$$$@@@@oooo....    XXXX++++%%%%&&&&****----::::;;;;====####OOOO",
"$$$$@@@@oooo....    XXXX++++%%%%&&&&****----::::;;;;====####OOOO",
"$$$$@@@@oooo....    XXXX++++%%%%&&&&****----::::;;;;====####OOOO",
"$$$$@@@@oooo....    XXXX++++%%%%&&&&****----::::;;;;====####OOOO",
"$$$$@@@@oooo....    XXXX++++%%%%&&&&****----::::;;;;====####OOOO",
"$$$$@@@@oooo....    XXXX++++%%%%&&&&****----::::;;;;====####OOOO",
"$$$$@@@@oooo....    XXXX++++%%%%&&&&****----::::;;;;====####OOOO",
"$$$$@@@@oooo....    XXXX++++%%%%&&&&****----::::;;;;====####OOOO",
"$$$$@@@@oooo....    XXXX++++%%%%&&&&****----::::;;;;====####OOOO",
"$$$$@@@@oooo....    XXXX++++%%%%&&&&****----::::;;;;====####OOOO",
"$$$$@@@@oooo....    XXXX++++%%%%&&&&****----::::;;;;====####OOOO",
"$$$$@@@@oooo....    XXXX++++%%%%&&&&****----::::;;;;====####OOOO",
"$$$$@@@@oooo....    XXXX++++%%%%&&&&****----::::;;;;====####OOOO",
"$$$$@@@@oooo....    XXXX++++%%%%&&&&****----::::;;;;====####OOOO",
"$$$$@@@@oooo....    XXXX++++%%%%&&&&****----::::;;;;====####OOOO",
"$$$$@@@@oooo....    XXXX++++%%%%&&&&****----::::;;;;====####OOOO",
"$$$$@@@@oooo....    XXXX++++%%%%&&&&****----::::;;;;====####OOOO",
"$$$$@@@@oooo....    XXXX++++%%%%&&&&****----::::;;;;====####OOOO",
"$$$$@@@@oooo....    XXXX++++%%%%&&&&****----::::;;;;====####OOOO",
"$$$$@@@@oooo....    XXXX++++%%%%&&&&****----::::;;;;====####OOOO",
"$$$$@@@@oooo....    XXXX++++%%%%&&&&****----::::;;;;====####OOOO",
"$$$$@@@@oooo....    XXXX++++%%%%&&&&****----::::;;;;====####OOOO",
"$$$$@@@@oooo....    XXXX++++%%%%&&&&****----::::;;;;====####OOOO",
"$$$$@@@@oooo....    XXXX++++%%%%&&&&****----::::;;;;====####OOOO",
"$$$$@@@@oooo....    XXXX++++%%%%&&&&****----::::;;;;====####OOOO",
"$$$$@@@@oooo....    XXXX++++%%%%&&&&****----::::;;;;====####OOOO",
"$$$$@@@@oooo....    XXXX++++%%%%&&&&****----::::;;;;====####OOOO",
"$$$$@@@@oooo....    XXXX++++%%%%&&&&****----::::;;;;====####OOOO",
"$$$$@@@@oooo....    XXXX++++%%%%&&&&****----::::;;;;====####OOOO",
"$$$$@@@@oooo....    XXXX++++%%%%&&&&****----::::;;;;====####OOOO",
"$$$$@@@@oooo....    XXXX++++%%%%&&&&****----::::;;;;====####OOOO",
"$$$$@@@@oooo....    XXXX++++%%%%&&&&****----::::;;;;====####OOOO",
"$$$$@@@@oooo....    XXXX++++%%%%&&&&****----::::;;;;====####OOOO",
"$$$$@@@@oooo....    XXXX++++%%%%&&&&****----::::;;;;====####OOOO",
"$$$$@@@@oooo....    XXXX++++%%%%&&&&****----::::;;;;====####OOOO",
"$$$$@@@@oooo....    XXXX++++%%%%&&&&****----::::;;;;====####OOOO",
"$$$$@@@@oooo....    XXXX++++%%%%&&&&****----::::;;;;====####OOOO",
"$$$$@@@@oooo....    XXXX++++%%%%&&&&****----::::;;;;====####OOOO",
"$$$$@@@@oooo....    XXXX++++%%%%&&&&****----::::;;;;====####OOOO",
"$$$$@@@@oooo....    XXXX++++%%%%&&&&****----::::;;;;====####OOOO",
"$$$$@@@@oooo....    XXXX++++%%%%&&&&****----::::;;;;====####OOOO",
"$$$$@@@@oooo....    XXXX++++%%%%&&&&****----::::;;;;====####OOOO",
"$$$$@@@@oooo....    XXXX++++%%%%&&&&****----::::;;;;====####OOOO",
"$$$$@@@@oooo....    XXXX++++%%%%&&&&****----::::;;;;====####OOOO",
"$$$$@@@@oooo....    XXXX++++%%%%&&&&****----::::;;;;====####OOOO",
"$$$$@@@@oooo....    XXXX++++%%%%&&&&****----::::;;;;====####OOOO",
"$$$$@@@@oooo....    XXXX++++%%%%&&&&****----::::;;;;====####OOOO",
"$$$$@@@@oooo....    XXXX++++%%%%&&&&****----::::;;;;====####OOOO"
};
