/* XPM */
static char *e044aa8fed0e4558e2781bf695aecd75UBBumvwKBWoCvzZX[] = {
/* columns rows colors chars-per-pixel */
"64 64 16 1 ",
"  c #015361",
". c #026576",
"X c #01778C",
"o c #048BA4",
"O c #03A1BE",
"+ c #02B4D4",
"@ c #02C7EA",
"# c #04D5FA",
"$ c #21DCFE",
"% c #4BE3FF",
"& c #60E6FF",
"* c #7FEAFE",
"= c #A7EFFC",
"- c #D0F4FA",
"; c #EDF8FA",
": c #FBFDFE",
/* pixels */
"    ....XXXXooooOOOO++++@@@@####$$$$%%%%&&&&****====----;;;;::::",
"    ....XXXXooooOOOO++++@@@@####$$$$%%%%&&&&****====----;;;;::::",
"    ....XXXXooooOOOO++++@@@@####$$$$%%%%&&&&****====----;;;;::::",
"    ....XXXXooooOOOO++++@@@@####$$$$%%%%&&&&****====----;;;;::::",
"    ....XXXXooooOOOO++++@@@@####$$$$%%%%&&&&****====----;;;;::::",
"    ....XXXXooooOOOO++++@@@@####$$$$%%%%&&&&****====----;;;;::::",
"    ....XXXXooooOOOO++++@@@@####$$$$%%%%&&&&****====----;;;;::::",
"    ....XXXXooooOOOO++++@@@@####$$$$%%%%&&&&****====----;;;;::::",
"    ....XXXXooooOOOO++++@@@@####$$$$%%%%&&&&****====----;;;;::::",
"    ....XXXXooooOOOO++++@@@@####$$$$%%%%&&&&****====----;;;;::::",
"    ....XXXXooooOOOO++++@@@@####$$$$%%%%&&&&****====----;;;;::::",
"    ....XXXXooooOOOO++++@@@@####$$$$%%%%&&&&****====----;;;;::::",
"    ....XXXXooooOOOO++++@@@@####$$$$%%%%&&&&****====----;;;;::::",
"    ....XXXXooooOOOO++++@@@@####$$$$%%%%&&&&****====----;;;;::::",
"    ....XXXXooooOOOO++++@@@@####$$$$%%%%&&&&****====----;;;;::::",
"    ....XXXXooooOOOO++++@@@@####$$$$%%%%&&&&****====----;;;;::::",
"    ....XXXXooooOOOO++++@@@@####$$$$%%%%&&&&****====----;;;;::::",
"    ....XXXXooooOOOO++++@@@@####$$$$%%%%&&&&****====----;;;;::::",
"    ....XXXXooooOOOO++++@@@@####$$$$%%%%&&&&****====----;;;;::::",
"    ....XXXXooooOOOO++++@@@@####$$$$%%%%&&&&****====----;;;;::::",
"    ....XXXXooooOOOO++++@@@@####$$$$%%%%&&&&****====----;;;;::::",
"    ....XXXXooooOOOO++++@@@@####$$$$%%%%&&&&****====----;;;;::::",
"    ....XXXXooooOOOO++++@@@@####$$$$%%%%&&&&****====----;;;;::::",
"    ....XXXXooooOOOO++++@@@@####$$$$%%%%&&&&****====----;;;;::::",
"    ....XXXXooooOOOO++++@@@@####$$$$%%%%&&&&****====----;;;;::::",
"    ....XXXXooooOOOO++++@@@@####$$$$%%%%&&&&****====----;;;;::::",
"    ....XXXXooooOOOO++++@@@@####$$$$%%%%&&&&****====----;;;;::::",
"    ....XXXXooooOOOO++++@@@@####$$$$%%%%&&&&****====----;;;;::::",
"    ....XXXXooooOOOO++++@@@@####$$$$%%%%&&&&****====----;;;;::::",
"    ....XXXXooooOOOO++++@@@@####$$$$%%%%&&&&****====----;;;;::::",
"    ....XXXXooooOOOO++++@@@@####$$$$%%%%&&&&****====----;;;;::::",
"    ....XXXXooooOOOO++++@@@@####$$$$%%%%&&&&****====----;;;;::::",
"    ....XXXXooooOOOO++++@@@@####$$$$%%%%&&&&****====----;;;;::::",
"    ....XXXXooooOOOO++++@@@@####$$$$%%%%&&&&****====----;;;;::::",
"    ....XXXXooooOOOO++++@@@@####$$$$%%%%&&&&****====----;;;;::::",
"    ....XXXXooooOOOO++++@@@@####$$$$%%%%&&&&****====----;;;;::::",
"    ....XXXXooooOOOO++++@@@@####$$$$%%%%&&&&****====----;;;;::::",
"    ....XXXXooooOOOO++++@@@@####$$$$%%%%&&&&****====----;;;;::::",
"    ....XXXXooooOOOO++++@@@@####$$$$%%%%&&&&****====----;;;;::::",
"    ....XXXXooooOOOO++++@@@@####$$$$%%%%&&&&****====----;;;;::::",
"    ....XXXXooooOOOO++++@@@@####$$$$%%%%&&&&****====----;;;;::::",
"    ....XXXXooooOOOO++++@@@@####$$$$%%%%&&&&****====----;;;;::::",
"    ....XXXXooooOOOO++++@@@@####$$$$%%%%&&&&****====----;;;;::::",
"    ....XXXXooooOOOO++++@@@@####$$$$%%%%&&&&****====----;;;;::::",
"    ....XXXXooooOOOO++++@@@@####$$$$%%%%&&&&****====----;;;;::::",
"    ....XXXXooooOOOO++++@@@@####$$$$%%%%&&&&****====----;;;;::::",
"    ....XXXXooooOOOO++++@@@@####$$$$%%%%&&&&****====----;;;;::::",
"    ....XXXXooooOOOO++++@@@@####$$$$%%%%&&&&****====----;;;;::::",
"    ....XXXXooooOOOO++++@@@@####$$$$%%%%&&&&****====----;;;;::::",
"    ....XXXXooooOOOO++++@@@@####$$$$%%%%&&&&****====----;;;;::::",
"    ....XXXXooooOOOO++++@@@@####$$$$%%%%&&&&****====----;;;;::::",
"    ....XXXXooooOOOO++++@@@@####$$$$%%%%&&&&****====----;;;;::::",
"    ....XXXXooooOOOO++++@@@@####$$$$%%%%&&&&****====----;;;;::::",
"    ....XXXXooooOOOO++++@@@@####$$$$%%%%&&&&****====----;;;;::::",
"    ....XXXXooooOOOO++++@@@@####$$$$%%%%&&&&****====----;;;;::::",
"    ....XXXXooooOOOO++++@@@@####$$$$%%%%&&&&****====----;;;;::::",
"    ....XXXXooooOOOO++++@@@@####$$$$%%%%&&&&****====----;;;;::::",
"    ....XXXXooooOOOO++++@@@@####$$$$%%%%&&&&****====----;;;;::::",
"    ....XXXXooooOOOO++++@@@@####$$$$%%%%&&&&****====----;;;;::::",
"    ....XXXXooooOOOO++++@@@@####$$$$%%%%&&&&****====----;;;;::::",
"    ....XXXXooooOOOO++++@@@@####$$$$%%%%&&&&****====----;;;;::::",
"    ....XXXXooooOOOO++++@@@@####$$$$%%%%&&&&****====----;;;;::::",
"    ....XXXXooooOOOO++++@@@@####$$$$%%%%&&&&****====----;;;;::::",
"    ....XXXXooooOOOO++++@@@@####$$$$%%%%&&&&****====----;;;;::::"
};
